<svg width="11" height="11" viewBox="0 0 11 11" fill="none" xmlns="http://www.w3.org/2000/svg">
<g clip-path="url(#clip0_809_537)">
<path d="M10.0833 2.16663V4.66663H7.58334" stroke="white" stroke-linecap="round" stroke-linejoin="round"/>
<path d="M0.916656 8.83337V6.33337H3.41666" stroke="white" stroke-linecap="round" stroke-linejoin="round"/>
<path d="M1.96249 4.24999C2.17381 3.65282 2.53296 3.11891 3.00643 2.69808C3.47991 2.27725 4.05227 1.98323 4.67011 1.84343C5.28795 1.70364 5.93114 1.72263 6.53965 1.89865C7.14817 2.07466 7.70218 2.40195 8.14999 2.84999L10.0833 4.66666M0.916656 6.33332L2.84999 8.14999C3.2978 8.59803 3.85181 8.92532 4.46033 9.10134C5.06884 9.27735 5.71203 9.29634 6.32987 9.15655C6.94771 9.01676 7.52007 8.72273 7.99355 8.3019C8.46702 7.88107 8.82617 7.34716 9.03749 6.74999" stroke="white" stroke-linecap="round" stroke-linejoin="round"/>
</g>
<defs>
<clipPath id="clip0_809_537">
<rect width="10" height="10" fill="white" transform="translate(0.5 0.5)"/>
</clipPath>
</defs>
</svg>
